<svg xmlns="http://www.w3.org/2000/svg" viewBox="0 0 100 100" x="0px" y="0px"><g data-name="Layer 2"><path d="M50,4A46,46,0,1,0,96,50,46.00064,46.00064,0,0,0,50,4ZM68.87433,48.43329a26.69491,26.69491,0,0,1-5.96845,42.24017,18.30765,18.30765,0,1,0-25.8117,0A26.69272,26.69272,0,1,1,68.87433,48.43329Zm-7.34314,17.7279a16.30743,16.30743,0,0,1,0,23.06238,16.421,16.421,0,0,1-2.08313,1.74414,11.38477,11.38477,0,1,0-18.89612,0,16.421,16.421,0,0,1-2.08313-1.74414A16.30757,16.30757,0,1,1,61.53119,66.16119Zm-15.9931,25.3769a4.39169,4.39169,0,0,0,.04834.47882,5.92286,5.92286,0,1,1,8.82714,0,4.39169,4.39169,0,0,0,.04834-.47882,4.46191,4.46191,0,0,0-8.92382,0Zm11.098-13.5589a9.37046,9.37046,0,0,1,1.0412,12.02313,7.92292,7.92292,0,1,0-15.3545,0,9.38163,9.38163,0,0,1,14.3133-12.02313Zm-9.098,13.5589A2.46191,2.46191,0,1,1,50,94,2.46518,2.46518,0,0,1,47.53809,91.53809ZM81.11261,81.11261a44.06012,44.06012,0,0,1-14.66235,9.69672,28.69239,28.69239,0,1,0-32.90058-.00006,44.00028,44.00028,0,1,1,47.56293-9.69666Z"/></g></svg>